Coordinates
version=1
nRows=19
nColumns=36
inDegrees=yes

Units are S.I. units (second, meters, Newtons, ...)
If the header above contains a line with 'inDegrees', this indicates whether rotational values are in degrees (yes) or radians (no).

endheader
time	pelvis_tilt	pelvis_list	pelvis_rotation	pelvis_tx	pelvis_ty	pelvis_tz	hip_flexion_r	hip_adduction_r	hip_rotation_r	knee_angle_r	knee_angle_r_beta	ankle_angle_r	subtalar_angle_r	mtp_angle_r	hip_flexion_l	hip_adduction_l	hip_rotation_l	knee_angle_l	knee_angle_l_beta	ankle_angle_l	subtalar_angle_l	mtp_angle_l	lumbar_extension	lumbar_bending	lumbar_rotation	arm_flex_r	arm_add_r	arm_rot_r	elbow_flex_r	pro_sup_r	arm_flex_l	arm_add_l	arm_rot_l	elbow_flex_l	pro_sup_l
      0.69000000	     -1.19759987	      2.74886821	     -1.77709997	      0.86103195	      0.94513399	     -0.18706440	      1.60469000	     -4.56652501	     -4.78641408	     51.97264435	      0.90709376	     -6.69560653	     -3.67476169	     -7.15620371	     17.93428909	      5.97166387	     -6.04573769	     15.75736445	      0.27501789	      1.52860974	     -9.40086178	     -7.15620371	     -4.38389270	     -6.32424733	      7.67497704	      6.24849919	     -1.99340486	     -4.80380302	     34.03035842	    104.07178787	    -12.99554132	     -1.68284352	    -20.62058595	     21.04245238	     99.33732901
      0.70000000	     -1.20575838	      3.07726444	     -1.70987224	      0.87077984	      0.94558117	     -0.18837437	      3.71144627	     -5.35258847	     -4.82696205	     55.52503821	      0.96909473	     -7.19596184	     -4.69158354	     -7.16023986	     17.17510169	      6.45094453	     -6.17469989	     15.57544991	      0.27184288	      2.23471169	     -9.16095358	     -7.16023986	     -4.49892683	     -6.74252875	      7.13980926	      6.23659070	     -1.94553125	     -4.72677841	     33.41361511	    104.06588511	    -11.87858552	     -1.77033635	    -20.00969027	     21.63091930	     99.45607610
      0.71000000	     -1.23877262	      3.31387614	     -1.67256996	      0.88025032	      0.94606989	     -0.18955823	      5.84352561	     -5.94163851	     -4.72341355	     58.78602341	      1.02600966	     -7.14372584	     -5.91366587	     -7.16443167	     16.47397879	      6.81450497	     -6.33330002	     15.41261276	      0.26900084	      2.94210679	     -8.86214753	     -7.16443167	     -4.58650110	     -7.06529704	      6.60673271	      6.27887211	     -1.93135234	     -4.62604246	     32.76418384	    104.07050532	    -10.71385114	     -1.88487530	    -19.23581927	     22.21120365	     99.61955768
      0.72000000	     -1.35235290	      3.36590837	     -1.67294617	      0.88958667	      0.94660198	     -0.19048532	      8.04316630	     -6.19653606	     -4.50440134	     61.66602873	      1.07627524	     -6.93916287	     -7.48566546	     -7.18887930	     15.93284852	      6.87650043	     -6.83789417	     15.43963385	      0.26947245	      4.13806529	     -7.65140527	     -7.18887930	     -4.57159526	     -7.15039327	      6.17512569	      6.32604845	     -1.98837768	     -4.12313041	     31.92021589	    104.24528383	     -9.37499012	     -2.32650981	    -16.23254273	     22.02983487	    100.10224427
      0.73000000	     -1.22234939	      3.35488060	     -1.64628537	      0.89870257	      0.94761796	     -0.19149816	      9.91118007	     -6.35626565	     -4.31127370	     64.13653056	      1.11939363	     -6.32450707	     -8.32948805	     -7.19100044	     15.02670759	      6.98969437	     -6.77630148	     15.23362458	      0.26587691	      4.56214387	     -7.56623510	     -7.19100044	     -4.96273026	     -7.18066210	      5.61194029	      6.39504476	     -1.98171670	     -4.20303848	     31.52355903	    104.22730588	     -7.97508588	     -2.35780426	    -15.84905970	     22.60634919	    100.20573614
      0.74000000	     -1.49035698	      3.40898584	     -1.69484871	      0.90793399	      0.94818086	     -0.19236439	     12.23447731	     -6.52384831	     -4.02495070	     66.33107843	      1.15769572	     -5.34493743	     -9.43828180	     -7.21281111	     14.56686916	      7.08262603	     -7.17792785	     15.04805588	      0.26263812	      5.57603301	     -6.75231056	     -7.21281111	     -4.71056735	     -7.25632207	      5.28558858	      6.34108638	     -1.98639514	     -4.15213829	     30.68318481	    104.34826597	     -6.57501481	     -2.82581153	    -12.87859475	     22.49640833	    100.65951622
      0.75000000	     -1.47586035	      3.29742025	     -1.69160658	      0.91698375	      0.94933998	     -0.19322556	     14.10751863	     -6.42702114	     -3.75422290	     67.97397715	      1.18636971	     -4.65635020	    -10.20174971	     -7.21537999	     13.73027498	      7.08080183	     -7.07951637	     14.72211893	      0.25694945	      5.96537844	     -6.62130204	     -7.21537999	     -4.92082325	     -7.17625050	      4.75811363	      6.34919235	     -1.97554993	     -4.24053865	     30.19711675	    104.32829739	     -5.16495021	     -2.89980840	    -12.44359956	     23.05383270	    100.75002854
      0.76000000	     -1.65022625	      3.09210765	     -1.63516629	      0.92608400	      0.95034233	     -0.19411064	     16.10151269	     -6.20530228	     -3.58319938	     69.21834637	      1.20808805	     -4.05658481	    -10.76794931	     -7.22862825	     13.15473663	      6.93054572	     -7.25953061	     14.51007573	      0.25324860	      6.66334001	     -6.00539792	     -7.22862825	     -4.80807028	     -6.93642742	      4.19641049	      6.38786976	     -1.99677125	     -4.16832954	     29.31969839	    104.37706866	     -3.77477254	     -3.28216198	    -10.02432154	     23.11477011	    100.95994986
      0.77000000	     -1.60876575	      2.84145828	     -1.59729981	      0.93518788	      0.95180366	     -0.19491091	     17.71240206	     -5.87327065	     -3.37503274	     69.95077773	      1.22087139	     -3.55841399	    -11.18282748	     -7.23167830	     12.20399902	      6.79811289	     -7.06873243	     14.02612333	      0.24480203	      7.08808898	     -5.82074375	     -7.23167830	     -5.01401976	     -6.67554071	      3.65477024	      6.32869060	     -2.04668617	     -4.20764960	     28.89064344	    104.36460428	     -2.30448072	     -3.39204549	     -9.42994068	     23.58435376	    101.01968815
      0.78000000	     -1.58746326	      2.51090985	     -1.47928710	      0.94430465	      0.95330392	     -0.19575499	     19.22556765	     -5.45591386	     -3.29076273	     70.28342733	      1.22667722	     -3.13928797	    -11.34996095	     -7.23521713	     11.29488838	      6.57670674	     -6.85620339	     13.57622614	      0.23694985	      7.51223910	     -5.55359049	     -7.23521713	     -5.20342947	     -6.29110950	      2.96326588	      6.30526518	     -2.07998192	     -4.24347570	     28.31198716	    104.34711984	     -0.92847583	     -3.57961144	     -8.46003328	     24.05494738	    101.10828342
      0.79000000	     -1.52792705	      2.11901791	     -1.31471298	      0.95346210	      0.95487707	     -0.19653643	     20.56581456	     -4.92248663	     -3.23182241	     70.20972869	      1.22539093	     -2.72773453	    -11.33425701	     -7.23837924	     10.31871413	      6.28998379	     -6.56674477	     13.09371543	      0.22852845	      7.90175063	     -5.25490768	     -7.23837924	     -5.34609226	     -5.84015641	      2.24190695	      6.29176925	     -2.12588653	     -4.26787321	     27.79826453	    104.33184779	      0.47584452	     -3.80076248	     -7.43371148	     24.58538862	    101.20869684
      0.80000000	     -1.38156813	      1.76561683	     -1.07252853	      0.96256613	      0.95651265	     -0.19732706	     21.72703367	     -4.50187029	     -3.31993229	     69.85856829	      1.21926203	     -2.06735530	    -10.82976899	     -7.26100067	      9.30540365	      6.00907069	     -6.49475117	     12.70503608	      0.22174471	      8.50878052	     -4.59886804	     -7.26100067	     -5.60396681	     -5.39769329	      1.67400426	      6.12560219	     -2.23350372	     -4.35852473	     27.41693787	    104.38041209	      2.31289186	     -4.48552231	     -3.39151127	     24.12426970	    100.98333642
      0.81000000	     -1.42287697	      1.54140739	     -0.85361528	      0.97154715	      0.95775732	     -0.19802412	     23.09234356	     -4.18069408	     -3.33538115	     69.28196302	      1.20919837	     -1.89534215	    -10.80500455	     -7.26153804	      8.56511950	      5.85642901	     -6.55802724	     12.38341889	      0.21613143	      8.62974757	     -4.56118016	     -7.26153804	     -5.66187498	     -5.15335535	      0.90882675	      5.96993925	     -2.24552113	     -4.40644431	     27.24006366	    104.36715797	      3.78979529	     -4.68412329	     -3.29443256	     24.74824859	    101.03144912
      0.82000000	     -1.12020470	      0.96932830	     -0.47462542	      0.98093669	      0.95959123	     -0.19879685	     23.73871768	     -3.49159488	     -3.59400975	     68.10061240	      1.18857991	     -1.10645177	    -10.30205902	     -7.26771068	      7.16791488	      5.38456978	     -5.77776201	     11.61052806	      0.20264194	      9.20901100	     -4.03485484	     -7.26771068	     -6.04838956	     -4.45175162	     -0.00363359	      5.95096832	     -2.28438490	     -4.78400686	     26.74162725	    104.32216383	      5.04935997	     -5.01309600	     -2.33099318	     25.82145946	    101.11192449
      0.83000000	     -1.11478743	      0.58322481	     -0.15240697	      0.99016373	      0.96076426	     -0.19942999	     24.77068763	     -2.98556669	     -3.73882608	     66.83349279	      1.16646450	     -0.71584137	    -10.06067550	     -7.26974982	      6.25819218	      5.04623419	     -5.50860211	     11.08176000	      0.19341320	      9.45078792	     -3.74613043	     -7.26974982	     -6.05136043	     -3.99048334	     -0.76213100	      5.72056290	     -2.34481874	     -4.93140080	     26.49264575	    104.30084561	      6.43879621	     -5.23833424	     -1.97204286	     26.60964964	    101.19972271
      0.84000000	     -0.83134428	      0.23639103	      0.26699864	      0.99944460	      0.96220295	     -0.20009042	     25.34907890	     -2.57846246	     -4.00252651	     65.26183504	      1.13903390	     -0.16497395	     -9.54186480	     -7.27429843	      5.02437018	      4.73980493	     -5.14377115	     10.53694157	      0.18390432	      9.98965105	     -3.21975440	     -7.27429843	     -6.40905239	     -3.56226986	     -1.68677734	      5.62239038	     -2.34695076	     -5.22976960	     26.30083648	    104.27501516	      7.81908318	     -5.64035102	     -1.21439577	     27.52096264	    101.35421113
      0.85000000	     -0.86955206	     -0.10261911	      0.59301960	      1.00875391	      0.96301179	     -0.20055932	     26.25743574	     -2.11951819	     -4.14441647	     63.52665129	      1.10874923	      0.14291528	     -9.24301417	     -7.27637453	      4.17598942	      4.40712235	     -4.94491061	     10.01607909	      0.17481356	     10.23089700	     -2.84990158	     -7.27637453	     -6.31016461	     -3.15172558	     -2.38112031	      5.32047907	     -2.43865742	     -5.39641709	     26.11257273	    104.25393757	      9.17068177	     -5.92550678	     -0.85454596	     28.31965044	    101.47400819
      0.86000000	     -0.82129332	     -0.39653934	      0.95139431	      1.01811927	      0.96377861	     -0.20099995	     26.94694427	     -1.74484702	     -4.34711973	     61.51784160	      1.07368888	      0.39469092	     -8.92133062	     -7.27830984	      3.24721412	      4.11006005	     -4.71259392	      9.53151902	      0.16635639	     10.56049058	     -2.45497730	     -7.27830984	     -6.28960222	     -2.79518603	     -3.13585156	      5.06001323	     -2.48919889	     -5.56692191	     25.96355780	    104.23143581	     10.48939534	     -6.24282489	     -0.44135835	     29.18166871	    101.61603216
      0.87000000	     -0.64590640	     -0.68675517	      1.34131641	      1.02748347	      0.96459641	     -0.20142158	     27.36532788	     -1.38811693	     -4.59452017	     59.23382269	      1.03382523	      0.58324018	     -8.56075149	     -7.28136570	      2.19066769	      3.80029973	     -4.46250046	      9.07640835	      0.15841321	     11.04831607	     -1.89302226	     -7.28136570	     -6.45904259	     -2.42718154	     -3.94733844	      4.84059683	     -2.53501101	     -5.81206887	     25.87521048	    104.20453837	     11.78184283	     -6.68022371	      0.17270537	     30.11335412	    101.80612463
